<svg width="24" height="24" viewBox="0 0 24 24" fill="none" xmlns="http://www.w3.org/2000/svg">
<g id="Frame 427318395">
<path id="Vector" d="M12 6.48387C10.0766 6.48387 8.51613 8.04435 8.51613 9.96774C8.51613 11.8911 10.0766 13.4516 12 13.4516C13.9234 13.4516 15.4839 11.8911 15.4839 9.96774C15.4839 8.04435 13.9234 6.48387 12 6.48387ZM12 11.7097C11.0383 11.7097 10.2581 10.9294 10.2581 9.96774C10.2581 9.00605 11.0383 8.22581 12 8.22581C12.9617 8.22581 13.7419 9.00605 13.7419 9.96774C13.7419 10.9294 12.9617 11.7097 12 11.7097ZM12 3C7.02823 3 3 7.02823 3 12C3 16.9718 7.02823 21 12 21C16.9718 21 21 16.9718 21 12C21 7.02823 16.9718 3 12 3ZM12 19.2581C10.1964 19.2581 8.54879 18.594 7.27863 17.5016C7.81935 16.6669 8.74476 16.1008 9.80444 16.0681C10.5593 16.3004 11.2778 16.4165 12 16.4165C12.7222 16.4165 13.4407 16.304 14.1956 16.0681C15.2552 16.1044 16.1806 16.6669 16.7214 17.5016C15.4512 18.594 13.8036 19.2581 12 19.2581ZM17.9044 16.206C17.019 15.0665 15.6508 14.3226 14.0903 14.3226C13.7202 14.3226 13.1468 14.671 12 14.671C10.8569 14.671 10.2798 14.3226 9.90968 14.3226C8.35282 14.3226 6.98468 15.0665 6.09556 16.206C5.24637 15.0194 4.74194 13.5677 4.74194 12C4.74194 7.99718 7.99718 4.74194 12 4.74194C16.0028 4.74194 19.2581 7.99718 19.2581 12C19.2581 13.5677 18.7536 15.0194 17.9044 16.206Z" fill="#025DAE"/>
</g>
</svg>
