<svg width="24" height="24" viewBox="0 0 24 24" fill="none" xmlns="http://www.w3.org/2000/svg">
<g id="Group">
<path id="Vector" fill-rule="evenodd" clip-rule="evenodd" d="M15.31 19.1053C15.3101 19.5833 15.1296 20.0437 14.8046 20.3942C14.4795 20.7447 14.034 20.9594 13.5574 20.9953L13.4153 21H11.5205C11.0425 21.0002 10.5821 20.8196 10.2316 20.4946C9.88107 20.1695 9.66637 19.724 9.63052 19.2474L9.62578 19.1053H15.31ZM12.4679 3C14.1873 2.99997 15.8396 3.66779 17.0761 4.8626C18.3126 6.0574 19.0367 7.68577 19.0957 9.40421L19.0995 9.63158V13.1975L20.8256 16.6497C20.9009 16.8003 20.9386 16.967 20.9354 17.1353C20.9323 17.3037 20.8884 17.4688 20.8074 17.6165C20.7265 17.7642 20.611 17.8901 20.4708 17.9834C20.3305 18.0767 20.1698 18.1346 20.0023 18.1522L19.8934 18.1579H5.04241C4.87394 18.1579 4.70796 18.1171 4.55871 18.039C4.40945 17.9608 4.28137 17.8477 4.18544 17.7092C4.08951 17.5707 4.02858 17.411 4.00789 17.2438C3.9872 17.0766 4.00735 16.9069 4.06662 16.7492L4.1102 16.6497L5.83631 13.1975V9.63158C5.83631 7.87278 6.53499 6.18601 7.77865 4.94234C9.02231 3.69868 10.7091 3 12.4679 3ZM12.4679 4.89474C11.2472 4.89481 10.0737 5.36609 9.1921 6.21031C8.31046 7.05453 7.78876 8.2065 7.73578 9.426L7.73104 9.63158V13.1975C7.73105 13.4324 7.68736 13.6653 7.6022 13.8843L7.53115 14.0454L6.42273 16.2632H18.514L17.4056 14.0444C17.3004 13.8344 17.2352 13.6066 17.2133 13.3727L17.2047 13.1975V9.63158C17.2047 8.37529 16.7057 7.17046 15.8173 6.28213C14.929 5.3938 13.7242 4.89474 12.4679 4.89474Z" fill="#7B7B7B"/>
</g>
</svg>
