<svg width="246" height="204" viewBox="0 0 246 204" fill="none" xmlns="http://www.w3.org/2000/svg">
<path d="M15.9664 80.7056C1.9299 101.534 -5.31519 125.861 4.55784 148.18C22.5467 188.845 120.573 177.416 163.26 161.447C283.487 116.471 225.675 -1.54332 95.6636 27.6382C59.2626 35.8086 30.003 59.877 15.9664 80.7056Z" fill="#E1DDDB" fill-opacity="0.3"/>
<path d="M95.6307 23.4976C101.102 13.3476 109.932 6.31365 123.036 10.536C124.191 11.0005 125.403 11.311 126.639 11.4597C127.895 11.386 129.146 11.2369 130.384 11.0131C136.292 10.5259 140.656 16.2505 143.529 21.427C148.867 31.0796 158.622 44.1833 156.724 55.7847C155.252 64.7776 146.797 71.0097 138.261 74.1562C128.636 77.7063 118.244 78.655 108.136 76.9069C103.061 76.034 97.813 74.3288 94.159 70.6443C89.084 65.5084 88.069 57.6016 88.4547 50.3443C88.9926 42.2345 91.1749 31.8104 95.6307 23.4976Z" fill="white"/>
<path d="M117.991 78.2569C114.66 78.2567 111.336 77.9715 108.054 77.4043C101.649 76.3081 97.0006 74.2172 93.8439 71.0098C89.4084 66.554 87.4393 59.652 87.9772 50.3952C88.5558 40.7933 91.2557 30.6534 95.2142 23.2845C99.8528 14.657 108.46 5.35964 123.137 10.0895L123.837 10.3331C124.73 10.6795 125.665 10.9015 126.618 10.9929C127.348 10.9968 128.077 10.9219 128.79 10.7696C129.278 10.6884 129.805 10.597 130.303 10.5564C135.165 10.1403 139.752 13.7334 143.894 21.2038C144.848 22.9293 145.924 24.7563 147.091 26.6949C152.278 35.3732 158.733 46.1728 157.139 55.866C155.871 63.712 148.877 70.7155 138.392 74.5928C131.864 77.0187 124.955 78.2596 117.991 78.2569ZM96.0972 23.721C92.1996 30.9782 89.5302 40.976 88.9922 50.4459C88.4543 59.3982 90.332 66.0972 94.5544 70.3602C97.5994 73.4053 102.076 75.4352 108.277 76.4502C118.3 78.1754 128.602 77.223 138.139 73.6894C148.289 69.9238 155.079 63.1842 156.307 55.6732C157.84 46.325 151.486 35.6777 146.38 27.1212C145.223 25.1826 144.127 23.3556 143.163 21.6199C139.214 14.5149 134.941 11.0741 130.465 11.4699C129.988 11.4699 129.521 11.5917 129.034 11.6729C128.218 11.8545 127.384 11.9464 126.547 11.947C125.503 11.8549 124.477 11.6122 123.502 11.2263L122.812 10.9929C108.744 6.45585 100.482 15.4284 95.9957 23.7413L96.0972 23.721Z" fill="#454545"/>
<path d="M182.845 167.75C182.845 167.75 178.596 94.152 167.857 84.3978C152.409 70.4314 97.5788 67.5184 86.4443 70.3909C66.7533 75.4659 53.0508 106.22 53.0508 106.22L85.7135 115.985C85.7845 141.248 88.3119 167.75 88.3119 167.75H182.845Z" fill="#03C7E8"/>
<path d="M84.2307 146.058C84.1627 146.053 84.0963 146.035 84.0354 146.004C83.9746 145.973 83.9204 145.93 83.8761 145.878C83.8317 145.827 83.7981 145.766 83.7771 145.702C83.7561 145.637 83.7481 145.568 83.7537 145.5L88.1689 87.6451C88.1741 87.5757 88.1928 87.5081 88.2242 87.446C88.2556 87.3839 88.299 87.3286 88.3518 87.2833C88.4046 87.238 88.4659 87.2037 88.532 87.1821C88.5982 87.1606 88.668 87.1524 88.7373 87.1579C88.8063 87.163 88.8736 87.1819 88.9352 87.2134C88.9967 87.2449 89.0514 87.2884 89.0959 87.3414C89.1403 87.3944 89.1737 87.4557 89.1941 87.5219C89.2144 87.588 89.2213 87.6575 89.2144 87.7263L84.7991 145.581C84.794 145.65 84.7752 145.718 84.7437 145.779C84.7122 145.841 84.6686 145.895 84.6156 145.94C84.5627 145.984 84.5013 146.018 84.4352 146.038C84.3691 146.058 84.2995 146.065 84.2307 146.058Z" fill="#454545"/>
<path d="M114.163 90.7217C117.828 95.279 123.298 98.527 129.196 98.6184C129.959 98.6607 130.724 98.5574 131.449 98.3139C132.442 97.8894 133.288 97.1838 133.885 96.2839C136.544 92.6299 136.656 87.7071 135.986 83.2411C135.509 80.1048 134.595 76.8162 132.22 74.7151C129.429 72.2487 125.379 72.0152 121.654 71.9137C117.929 71.8122 109.291 70.7262 107.911 75.314C106.622 79.5059 111.707 87.6665 114.163 90.7217Z" fill="#454545"/>
<path d="M129.42 99.0646H129.187C123.553 98.9732 117.809 95.9587 113.82 91.0055C111.17 87.7169 106.146 79.536 107.476 75.1816C108.805 70.8273 115.9 71.1216 120.123 71.3855L121.676 71.4566C125.786 71.5784 129.704 71.8829 132.516 74.3696C135.327 76.8564 136.028 80.5307 136.424 83.1697C137.286 88.874 136.556 93.3197 134.252 96.5372C133.611 97.5159 132.692 98.2797 131.613 98.7296C130.908 98.9745 130.165 99.0881 129.42 99.0646ZM116.662 72.1671C113.089 72.1671 109.181 72.6847 108.339 75.4455C107.11 79.4142 112.064 87.4022 114.51 90.4472C118.336 95.1974 123.827 98.08 129.197 98.1714C129.908 98.2085 130.62 98.1157 131.298 97.8973C132.211 97.5007 132.988 96.8442 133.531 96.0094C135.683 93.0456 136.363 88.7623 135.561 83.3016C135.185 80.7946 134.404 77.2116 131.947 75.0395C129.491 72.8674 125.604 72.4614 121.666 72.3498C121.209 72.3498 120.65 72.3498 120.102 72.2787C119.067 72.228 117.88 72.1671 116.662 72.1671Z" fill="#454545"/>
<path d="M137.874 43.808C138.249 42.5429 138.885 41.3706 139.742 40.3671C140.181 39.8733 140.761 39.5266 141.404 39.374C142.047 39.2215 142.721 39.2706 143.335 39.5145C143.762 39.7688 144.12 40.1237 144.379 40.5484C144.637 40.973 144.787 41.4544 144.817 41.9505C144.867 42.9487 144.701 43.9458 144.33 44.8737C143.765 46.6382 142.787 48.2423 141.477 49.5529C140.827 50.204 140.05 50.7154 139.195 51.0558C138.34 51.3961 137.424 51.5582 136.504 51.5321" fill="white"/>
<path d="M136.89 51.9282H136.474C136.367 51.9179 136.268 51.8667 136.198 51.7854C136.128 51.7041 136.093 51.5989 136.098 51.4917C136.101 51.4379 136.114 51.3851 136.138 51.3366C136.161 51.2881 136.195 51.245 136.235 51.2098C136.276 51.1747 136.324 51.1482 136.375 51.1321C136.427 51.116 136.481 51.1106 136.535 51.1162C137.403 51.1458 138.268 50.9971 139.076 50.6794C139.884 50.3617 140.619 49.8816 141.234 49.2689C142.496 48.0042 143.436 46.4553 143.975 44.7521C144.329 43.8802 144.488 42.9414 144.442 42.0015C144.417 41.5693 144.287 41.1497 144.062 40.7798C143.837 40.4098 143.525 40.1009 143.152 39.8801C142.615 39.6774 142.028 39.6427 141.47 39.7804C140.911 39.9181 140.408 40.2218 140.026 40.6515C139.218 41.6241 138.614 42.7494 138.25 43.9604C138.232 44.0102 138.204 44.0559 138.168 44.0947C138.132 44.1336 138.089 44.1648 138.041 44.1866C137.992 44.2083 137.94 44.2202 137.887 44.2214C137.834 44.2227 137.782 44.2133 137.732 44.1939C137.632 44.1572 137.55 44.0822 137.504 43.9852C137.458 43.8883 137.453 43.7772 137.489 43.6762C137.886 42.3539 138.557 41.1298 139.458 40.0831C139.958 39.5304 140.615 39.1452 141.342 38.9799C142.069 38.8146 142.828 38.8773 143.518 39.1595C144.012 39.44 144.429 39.8394 144.73 40.3214C145.031 40.8034 145.208 41.353 145.243 41.9203C145.299 42.9602 145.126 43.9997 144.736 44.9653C144.16 46.8097 143.143 48.4856 141.772 49.8474C140.468 51.1359 138.723 51.8799 136.89 51.9282Z" fill="#454545"/>
<path d="M130.902 61.4082L132.475 77.0595C132.475 77.0595 131.714 85.961 121.929 84.1645C119.055 83.6096 116.34 82.4241 113.979 80.6936C111.619 78.963 109.671 76.7304 108.277 74.1566L108.643 46.0715C108.582 44.9246 110.967 40.9965 109.84 31.0698C113.195 30.7268 116.441 29.6886 119.371 28.0214C122.302 26.3542 124.853 24.0946 126.862 21.3867C126.862 21.3867 131.399 26.9895 133.307 28.7252C134.839 30.0073 136.203 31.477 137.367 33.0998C140.412 37.6673 140.28 45.1174 139.549 50.3548C138.839 54.6584 136.342 61.5198 130.902 61.4082Z" fill="white"/>
<path d="M124.375 84.8953C123.527 84.8897 122.681 84.8082 121.847 84.6517C118.893 84.0752 116.102 82.8527 113.676 81.0717C111.249 79.2906 109.246 76.9951 107.81 74.3495C107.795 74.2826 107.795 74.2133 107.81 74.1465C107.81 74.1465 108.175 46.2441 108.175 46.0716C108.218 45.5697 108.323 45.0751 108.49 44.5998C109.058 42.651 110.226 38.591 109.383 31.1206C109.377 31.0608 109.382 31.0004 109.4 30.9428C109.417 30.8852 109.446 30.8318 109.485 30.7857C109.519 30.736 109.565 30.6948 109.617 30.6649C109.67 30.6351 109.729 30.6174 109.789 30.6131C113.072 30.2679 116.248 29.2475 119.118 27.6161C121.988 25.9847 124.49 23.7774 126.466 21.133C126.507 21.0737 126.562 21.0246 126.625 20.9894C126.688 20.9542 126.759 20.9339 126.831 20.93C126.904 20.9272 126.977 20.9414 127.044 20.9713C127.111 21.0012 127.17 21.0461 127.217 21.1026C127.217 21.1026 131.754 26.6952 133.621 28.3801C135.158 29.6918 136.522 31.1924 137.681 32.8461C141.193 38.1647 140.422 46.8836 139.935 50.3853C139.346 54.5773 136.89 61.5503 131.439 61.865L132.952 77.0189C132.709 79.4527 131.521 81.6941 129.643 83.2612C128.121 84.3844 126.265 84.9603 124.375 84.8953ZM108.693 74.045C110.072 76.5357 111.98 78.6941 114.282 80.3687C116.585 82.0433 119.226 83.1935 122.02 83.7382C124.943 84.266 127.308 83.86 129.054 82.5304C130.698 81.131 131.753 79.1626 132.008 77.0189L130.444 61.459C130.439 61.393 130.447 61.3266 130.468 61.2637C130.489 61.2009 130.522 61.143 130.566 61.0936C130.611 61.0479 130.665 61.0118 130.724 60.9874C130.784 60.963 130.847 60.9508 130.911 60.9515H131.033C136.108 60.9515 138.433 54.2423 138.991 50.2534C139.478 46.8531 140.229 38.4185 136.89 33.3638C135.757 31.7708 134.431 30.3252 132.941 29.0602C130.797 26.8597 128.764 24.5527 126.851 22.148C122.766 27.2984 116.828 30.6462 110.307 31.4759C111.068 38.8346 109.901 42.8845 109.292 44.8536C109.159 45.2422 109.067 45.6436 109.018 46.0513C109.018 46.0513 109.058 46.0817 108.693 74.045Z" fill="#454545"/>
<path d="M131.438 66.5538C128.868 67.0035 126.223 66.7221 123.805 65.7418C118.233 63.7828 117.908 59.9766 117.908 59.9766C117.908 59.9766 122.597 62.9201 130.9 61.3773L131.438 66.5538Z" fill="#454545"/>
<path d="M129.176 67.2139C127.292 67.1821 125.427 66.8391 123.655 66.1989C117.879 64.1689 117.483 60.2206 117.463 60.1089C117.455 60.025 117.471 59.9405 117.508 59.8652C117.546 59.7899 117.605 59.7268 117.677 59.6833C117.749 59.6397 117.832 59.6175 117.916 59.6192C118.001 59.6209 118.083 59.6464 118.153 59.6928C118.153 59.6928 122.812 62.5246 130.82 61.0326C130.945 61.0116 131.073 61.0408 131.176 61.1138C131.226 61.15 131.268 61.1971 131.298 61.2516C131.327 61.306 131.345 61.3664 131.348 61.4284L131.876 66.5034C131.898 66.5877 131.895 66.6764 131.868 66.7591C131.841 66.8418 131.791 66.9151 131.724 66.9703C131.68 67.0105 131.629 67.0411 131.573 67.0603C131.517 67.0795 131.458 67.0869 131.399 67.082C130.664 67.1971 129.92 67.2413 129.176 67.2139ZM118.59 60.86C119.036 62.0273 120.315 64.0674 123.959 65.3463C126.186 66.196 128.589 66.4786 130.952 66.1685L130.516 61.9359C124.406 62.9611 120.315 61.6822 118.59 60.86Z" fill="#454545"/>
<path d="M124.061 36.0742C124.061 36.0742 129.846 43.0879 128.78 44.519C127.715 45.9502 124.284 45.4122 124.284 45.4122" fill="white"/>
<path d="M125.714 45.9592C125.211 45.9586 124.71 45.9247 124.212 45.8577C124.106 45.8253 124.017 45.7561 123.958 45.6627C123.9 45.5693 123.878 45.4581 123.895 45.3494C123.912 45.2408 123.968 45.142 124.052 45.0713C124.137 45.0006 124.244 44.9627 124.354 44.9645C125.237 45.1066 127.683 45.2385 128.414 44.2438C128.87 43.6348 126.668 39.9504 123.694 36.3573C123.657 36.312 123.628 36.2598 123.611 36.2036C123.594 36.1475 123.588 36.0885 123.594 36.03C123.6 35.9716 123.617 35.9148 123.644 35.863C123.672 35.8112 123.709 35.7653 123.755 35.728C123.849 35.6544 123.968 35.6197 124.087 35.631C124.206 35.6423 124.316 35.6988 124.394 35.7889C126.201 37.9813 130.281 43.239 129.134 44.7818C128.414 45.7562 126.881 45.9592 125.714 45.9592Z" fill="#454545"/>
<path d="M131.302 37.6836C131.774 37.6204 132.06 36.8441 131.941 35.9495C131.821 35.055 131.341 34.381 130.869 34.4442C130.397 34.5074 130.111 35.2838 130.23 36.1783C130.35 37.0729 130.83 37.7468 131.302 37.6836Z" fill="#454545"/>
<path d="M117.067 37.7043C117.543 37.6987 117.921 36.9626 117.911 36.0602C117.9 35.1577 117.505 34.4306 117.029 34.4362C116.552 34.4418 116.175 35.1779 116.185 36.0803C116.196 36.9828 116.59 37.7099 117.067 37.7043Z" fill="#454545"/>
<path d="M111.798 41.8686C111.449 40.5288 110.853 39.2657 110.042 38.1436C109.575 37.5067 108.964 36.9903 108.258 36.6373C107.551 36.2842 106.771 36.1047 105.982 36.1136C105.494 36.1326 105.016 36.2622 104.586 36.4925C104.155 36.7228 103.782 37.0479 103.495 37.4432C103.153 38.0128 102.938 38.6501 102.866 39.3108C102.348 42.7923 103.515 47.3293 106.794 49.1259C107.347 49.4737 107.988 49.6582 108.641 49.6582C109.295 49.6582 109.935 49.4737 110.488 49.1259" fill="white"/>
<path d="M108.865 50.0604C108.072 50.0422 107.296 49.8333 106.601 49.4514C103.171 47.5635 101.932 42.8844 102.47 39.2202C102.547 38.5008 102.783 37.8074 103.161 37.1902C103.481 36.7428 103.898 36.3741 104.382 36.1121C104.865 35.8501 105.402 35.7016 105.952 35.6779C106.81 35.6717 107.657 35.8702 108.423 36.2567C109.189 36.6433 109.852 37.2069 110.357 37.9007C111.203 39.0603 111.823 40.3687 112.184 41.7577C112.212 41.86 112.2 41.9693 112.148 42.0623C112.097 42.1552 112.012 42.2244 111.91 42.2551C111.86 42.2722 111.807 42.2789 111.754 42.2747C111.702 42.2706 111.651 42.2557 111.604 42.2309C111.557 42.2062 111.516 42.1721 111.483 42.1309C111.45 42.0897 111.426 42.0421 111.413 41.9912C111.077 40.6998 110.506 39.4817 109.728 38.3981C109.306 37.8037 108.747 37.3198 108.099 36.9876C107.45 36.6554 106.731 36.4847 106.003 36.4899C105.578 36.5057 105.162 36.617 104.786 36.8156C104.41 37.0141 104.083 37.2948 103.83 37.6368C103.52 38.1565 103.329 38.7391 103.272 39.342C102.765 42.722 103.881 47.0357 106.987 48.7409C107.466 49.0597 108.025 49.2365 108.599 49.2509C109.174 49.2653 109.741 49.1166 110.235 48.8221C110.321 48.7589 110.428 48.7311 110.534 48.7443C110.639 48.7575 110.736 48.8108 110.804 48.8932C110.869 48.9781 110.899 49.0855 110.885 49.192C110.872 49.2986 110.817 49.3955 110.732 49.4616C110.193 49.8617 109.536 50.0722 108.865 50.0604Z" fill="#454545"/>
<path d="M166.029 161.964C165.906 161.964 165.786 161.92 165.691 161.84C165.597 161.76 165.533 161.65 165.512 161.528C162.03 139.797 155.362 98.3744 155.057 97.1158C155.023 96.9813 155.043 96.8387 155.114 96.719C155.184 96.5994 155.299 96.5122 155.433 96.4764C155.568 96.4454 155.711 96.4683 155.83 96.5402C155.95 96.6121 156.036 96.7275 156.072 96.8621C156.468 98.4759 166.131 158.777 166.547 161.355C166.567 161.492 166.533 161.632 166.451 161.744C166.37 161.856 166.247 161.932 166.11 161.954L166.029 161.964Z" fill="#454545"/>
<path d="M103.112 184.842L102.977 184.655H102.747H55.0401C50.0527 184.655 45.9305 180.138 45.9305 174.453V116.416C45.9305 110.737 50.0532 106.208 55.0401 106.208H181.016C186.003 106.208 190.134 110.738 190.165 116.419V174.453C190.165 180.138 186.037 184.655 181.049 184.655H131.929H131.726L131.592 184.807L115.869 202.609L103.112 184.842Z" fill="white" stroke="#454545" stroke-width="0.9"/>
<path d="M126.486 55.034C118.985 55.034 116.59 45.1377 116.488 44.7114C116.464 44.5944 116.486 44.4726 116.551 44.372C116.615 44.2715 116.717 44.2002 116.833 44.1735C116.89 44.1599 116.95 44.1579 117.008 44.1674C117.066 44.1769 117.122 44.1979 117.172 44.229C117.222 44.2601 117.265 44.3009 117.299 44.3488C117.334 44.3968 117.358 44.451 117.371 44.5084C117.371 44.5998 119.695 54.1408 126.506 54.1408C127.212 54.168 127.916 54.0394 128.567 53.764C129.217 53.4885 129.8 53.0731 130.272 52.5472C132.616 49.8778 131.987 44.7013 131.977 44.6505C131.968 44.5918 131.972 44.532 131.986 44.4745C132.001 44.417 132.027 44.3631 132.063 44.3158C132.099 44.2686 132.144 44.229 132.196 44.1993C132.247 44.1696 132.304 44.1505 132.363 44.143C132.48 44.131 132.598 44.1642 132.692 44.2358C132.787 44.3074 132.85 44.4121 132.87 44.5287C132.87 44.7622 133.57 50.162 130.952 53.1359C130.395 53.7634 129.705 54.2592 128.932 54.5875C128.16 54.9157 127.324 55.0682 126.486 55.034Z" fill="#454545"/>
<path d="M70.1771 103.176C73.7637 101.377 78.12 99.9134 81.6644 101.817C83.3455 102.866 84.7632 104.287 85.8078 105.971C88.0669 109.136 90.1082 112.451 91.9175 115.893C92.3914 116.848 92.7954 118.019 92.0581 118.706C91.16 119.551 89.7377 118.638 88.9482 117.701C87.5236 116.028 86.3296 114.173 85.3981 112.183C87.2805 114.936 88.7735 117.936 89.8348 121.097C90.0177 121.471 90.0817 121.891 90.0181 122.302C89.8722 122.667 89.588 122.96 89.2274 123.116C88.8667 123.273 88.4587 123.281 88.0922 123.139C87.3497 122.858 86.7046 122.367 86.2347 121.728C84.1638 119.239 82.3741 116.53 80.8983 113.649C82.3828 116.657 83.8796 119.745 84.2431 123.078C84.3088 123.353 84.3162 123.639 84.2649 123.917C84.2135 124.196 84.1045 124.46 83.9449 124.694C83.7065 124.904 83.4062 125.031 83.0894 125.055C82.7726 125.079 82.4565 124.999 82.1891 124.828C81.6793 124.464 81.2568 123.992 80.952 123.445L75.6783 115.778C77.0141 118.725 77.9793 121.827 78.5518 125.012C78.6234 125.274 78.623 125.551 78.5505 125.813C78.2358 126.713 76.8342 126.341 76.1662 125.662C75.1107 124.468 74.2905 123.084 73.7489 121.585C72.0643 117.734 70.4974 113.712 68.6538 109.896C67.1293 106.761 66.4761 105.033 70.1771 103.176Z" fill="white"/>
<path d="M77.958 126.765L78.0684 126.749C78.2758 126.704 78.4681 126.606 78.6266 126.465C78.785 126.324 78.9042 126.144 78.9726 125.944C79.0614 125.607 79.0675 125.254 78.9905 124.914C78.6521 123.052 78.1839 121.216 77.5894 119.419L80.5096 123.697C80.8645 124.309 81.3549 124.832 81.9432 125.225C82.3005 125.453 82.7244 125.554 83.1464 125.512C83.5684 125.471 83.964 125.288 84.2695 124.994C84.4767 124.712 84.621 124.389 84.6929 124.047C84.7648 123.705 84.7626 123.352 84.6863 123.01C84.5274 121.793 84.252 120.594 83.864 119.429C84.4984 120.359 85.1577 121.183 85.8586 122.011C86.357 122.728 87.0556 123.282 87.867 123.604C88.1454 123.691 88.4383 123.721 88.7284 123.693C89.0186 123.665 89.3002 123.578 89.5565 123.44C89.7497 123.337 89.9205 123.198 90.0587 123.029C90.197 122.859 90.2999 122.664 90.3614 122.455C90.4574 121.958 90.4043 121.445 90.2087 120.979C89.9753 120.255 89.7117 119.535 89.4297 118.828C89.9032 119.214 90.4782 119.455 91.0854 119.521C91.3167 119.539 91.5492 119.507 91.7672 119.428C91.9853 119.348 92.184 119.224 92.3501 119.062C92.871 118.572 93.2855 117.585 92.2992 115.692C90.4856 112.233 88.4385 108.901 86.1719 105.721C85.0837 103.975 83.6092 102.503 81.8619 101.418C78.8572 99.8217 74.971 100.259 69.9541 102.778C65.9002 104.812 66.657 106.884 68.2137 110.097C69.4397 112.62 70.5521 115.275 71.623 117.791C72.1819 119.102 72.7308 120.415 73.2481 121.722C73.8155 123.272 74.6668 124.702 75.7585 125.94C76.0393 126.234 76.3829 126.461 76.7638 126.604C77.1447 126.747 77.5529 126.802 77.958 126.765ZM75.6082 115.306C75.5536 115.304 75.4993 115.313 75.4476 115.33C75.3469 115.387 75.271 115.48 75.2346 115.59C75.1982 115.7 75.2039 115.819 75.2507 115.925C76.5744 118.833 77.527 121.896 78.0858 125.042C78.1393 125.224 78.1475 125.416 78.1096 125.603C78.0928 125.657 78.061 125.706 78.0176 125.744C77.9743 125.781 77.9213 125.806 77.8647 125.814C77.6113 125.827 77.3581 125.786 77.1214 125.695C76.8847 125.604 76.6697 125.464 76.4903 125.284C75.481 124.129 74.6936 122.798 74.1677 121.357C73.6003 120.057 73.0514 118.744 72.5442 117.435C71.4641 114.858 70.3387 112.186 69.0996 109.643C67.6013 106.545 67.1227 105.222 70.4321 103.558C75.1432 101.188 78.7608 100.74 81.5158 102.179C83.1359 103.197 84.5009 104.573 85.5059 106.202C87.7534 109.348 89.7816 112.644 91.5763 116.068C91.8963 116.687 92.3545 117.808 91.808 118.333C91.7304 118.406 91.6381 118.462 91.5372 118.497C91.4363 118.532 91.3291 118.545 91.2228 118.535C90.4804 118.382 89.8188 117.964 89.3603 117.361C88.9613 116.898 88.5854 116.452 88.2259 115.911C87.5179 114.519 86.7231 113.172 85.8463 111.879C85.7786 111.784 85.6785 111.717 85.5648 111.691C85.451 111.665 85.3317 111.681 85.2292 111.737C85.1284 111.796 85.0535 111.891 85.0192 112.002C84.9848 112.114 84.9936 112.234 85.0438 112.34C85.7112 113.761 86.5088 115.118 87.4264 116.392C88.209 117.951 88.8768 119.565 89.4243 121.221C89.5572 121.517 89.6069 121.843 89.5678 122.165C89.5075 122.344 89.3789 122.493 89.2099 122.579C89.0614 122.67 88.8961 122.731 88.7237 122.757C88.5513 122.783 88.3754 122.774 88.2064 122.731C87.5704 122.454 87.0251 122.003 86.6327 121.431C84.5887 118.966 82.8207 116.284 81.3603 113.434C81.2978 113.338 81.2021 113.269 81.0916 113.239C80.981 113.209 80.8633 113.22 80.7607 113.271C80.6582 113.322 80.578 113.41 80.5355 113.516C80.493 113.622 80.491 113.741 80.53 113.848C81.9552 116.804 83.4258 119.855 83.8218 123.132C83.8773 123.341 83.89 123.56 83.8592 123.774C83.8284 123.989 83.7546 124.195 83.6423 124.381C83.4755 124.509 83.2729 124.582 83.0626 124.59C82.8523 124.598 82.6447 124.541 82.4685 124.426C82.0062 124.101 81.6199 123.68 81.3361 123.192L76.0639 115.534C76.0203 115.454 75.9533 115.389 75.8718 115.349C75.7904 115.308 75.6984 115.293 75.6082 115.306Z" fill="#454545"/>
<path d="M207.372 99.7322C207.43 99.7275 207.486 99.7122 207.538 99.6872C215.214 94.2396 220.02 88.2106 221.846 81.7353C229.021 77.1588 232.984 70.6532 232.606 63.8795C231.975 51.8119 217.685 42.7708 200.833 43.6732C183.98 44.6076 170.809 55.1665 171.449 67.2315C172.089 79.2964 186.367 88.3304 203.184 87.4163C205.507 87.2898 207.816 86.9722 210.087 86.4668C209.922 90.8412 208.779 95.1232 206.742 98.998C206.69 99.085 206.665 99.1856 206.671 99.2869C206.677 99.3882 206.712 99.4854 206.774 99.5662C206.835 99.6469 206.919 99.7074 207.016 99.7398C207.112 99.7722 207.215 99.7751 207.313 99.7481L207.372 99.7322ZM200.922 44.7007C217.2 43.8164 230.955 52.4343 231.59 63.933C231.952 70.3746 228.141 76.5868 221.138 80.9804C221.033 81.051 220.954 81.1535 220.912 81.2727C219.332 87.1032 215.203 92.6024 208.622 97.6282C210.263 93.9118 211.129 89.9003 211.169 85.8383C211.169 85.7615 211.151 85.6857 211.117 85.6166C211.084 85.5475 211.035 85.4869 210.975 85.4395C210.914 85.392 210.844 85.3589 210.769 85.3426C210.694 85.3263 210.616 85.3272 210.541 85.3453C208.13 85.9195 205.672 86.2772 203.197 86.4139C186.902 87.3133 173.124 78.6909 172.49 67.1922C171.855 55.6935 184.6 45.6178 200.892 44.7086L200.922 44.7007Z" fill="#D3CECB"/>
<path d="M75.9248 170.151C75.6912 170.236 75.5706 170.494 75.6553 170.728C75.7401 170.961 75.9982 171.082 76.2319 170.997L75.9248 170.151ZM105.694 146.36L105.325 146.103L105.694 146.36ZM108.515 125.736L108.549 126.184L108.515 125.736ZM96.4601 134.933L96.8292 135.19L96.4601 134.933ZM151.042 128.024L151.44 128.233L151.042 128.024ZM149.712 113.888L149.745 114.337L149.712 113.888ZM133.632 131.3L133.202 131.17L133.202 131.17L133.632 131.3ZM133.617 131.352L134.047 131.482L134.047 131.482L133.617 131.352ZM157.054 147.878C157.291 147.802 157.421 147.548 157.345 147.312C157.268 147.075 157.015 146.945 156.778 147.021L157.054 147.878ZM133.202 131.17L133.186 131.221L134.047 131.482L134.063 131.431L133.202 131.17ZM136.528 147.943C142.241 142.272 147.672 135.394 151.44 128.233L150.643 127.814C146.927 134.878 141.557 141.683 135.893 147.305L136.528 147.943ZM151.44 128.233C152.08 127.017 153.347 123.307 153.658 119.949C153.814 118.276 153.74 116.614 153.172 115.382C152.884 114.756 152.461 114.228 151.866 113.877C151.271 113.526 150.542 113.375 149.678 113.44L149.745 114.337C150.465 114.283 151.003 114.413 151.409 114.652C151.815 114.892 152.126 115.263 152.355 115.759C152.821 116.77 152.913 118.236 152.762 119.866C152.461 123.114 151.225 126.708 150.643 127.814L151.44 128.233ZM149.678 113.44C145.534 113.75 141.938 116.475 139.139 119.927C136.333 123.388 134.271 127.646 133.202 131.17L134.063 131.431C135.102 128.005 137.114 123.854 139.838 120.494C142.568 117.126 145.959 114.62 149.745 114.337L149.678 113.44ZM133.186 131.221C132.448 133.654 131.751 137 131.92 140.149C132.09 143.295 133.133 146.344 135.983 148.012L136.438 147.236C133.964 145.788 132.981 143.108 132.819 140.101C132.657 137.097 133.325 133.865 134.047 131.482L133.186 131.221ZM96.091 134.675C93.9783 137.703 91.552 142.707 90.6804 147.575C89.8122 152.425 90.4654 157.33 94.7866 159.86L95.2412 159.083C91.4248 156.849 90.7184 152.47 91.5663 147.734C92.411 143.016 94.7766 138.132 96.8292 135.19L96.091 134.675ZM108.481 125.287C105.71 125.494 103.304 126.859 101.256 128.647C99.2081 130.434 97.4895 132.671 96.091 134.675L96.8292 135.19C98.2148 133.204 99.8836 131.039 101.848 129.325C103.811 127.611 106.04 126.372 108.549 126.184L108.481 125.287ZM106.063 146.617C107.294 144.848 110.281 139.483 111.829 134.629C112.599 132.216 113.042 129.845 112.667 128.091C112.477 127.198 112.067 126.431 111.349 125.919C110.635 125.41 109.678 125.197 108.481 125.287L108.549 126.184C109.611 126.105 110.337 126.302 110.827 126.652C111.313 126.999 111.63 127.541 111.787 128.279C112.109 129.786 111.735 131.961 110.972 134.355C109.454 139.114 106.511 144.399 105.325 146.103L106.063 146.617ZM95.3309 159.791C99.3824 155.769 102.824 151.27 106.063 146.617L105.325 146.103C102.099 150.737 98.6929 155.185 94.6969 159.152L95.3309 159.791ZM76.2319 170.997C83.5488 168.342 89.6767 165.404 95.3309 159.791L94.6969 159.152C89.1766 164.632 83.1888 167.515 75.9248 170.151L76.2319 170.997ZM94.7866 159.86C101.288 163.666 109.486 162.902 117.124 160.117C124.773 157.327 131.961 152.476 136.528 147.943L135.893 147.305C131.416 151.749 124.338 156.528 116.816 159.271C109.282 162.019 101.403 162.69 95.2412 159.083L94.7866 159.86ZM135.983 148.012C139.071 149.82 142.811 150.274 146.52 150.039C150.233 149.803 153.958 148.876 157.054 147.878L156.778 147.021C153.72 148.007 150.074 148.912 146.463 149.14C142.848 149.369 139.312 148.918 136.438 147.236L135.983 148.012Z" fill="#D7D3D1"/>
<path d="M34.1208 1.67272L34.1208 1.67271C39.9029 0.930545 45.3366 1.92561 49.4422 4.11327C53.5488 6.30152 56.2929 9.65956 56.8045 13.6458C57.3161 17.632 55.5083 21.5751 52.0884 24.7305C48.6694 27.8851 43.6661 30.2212 37.8913 30.9639L37.8912 30.9639C36.1449 31.1889 34.3819 31.2561 32.6236 31.1648L32.0474 31.1349L32.1587 31.7011C32.6982 34.4435 33.7686 37.0476 35.3035 39.3693C29.2428 36.2215 26.3184 32.6297 24.9143 29.7128L24.8379 29.5541L24.6742 29.4894C19.3949 27.4043 15.8095 23.6168 15.215 18.9913L15.2149 18.991C14.6999 15.0042 16.5008 11.0607 19.9169 7.90532C23.3321 4.7507 28.3352 2.4146 34.1208 1.67272Z" stroke="#D3CECB" stroke-width="0.9"/>
<path d="M61.0231 135.858L48.305 133.863L49.2502 146.414L57.0239 149.239L65.7092 152.397L63.3431 144.054L61.0231 135.858Z" fill="white"/>
<path d="M66.0579 152.457C66.0648 152.408 66.0613 152.357 66.0477 152.309L61.3616 135.77C61.3421 135.706 61.305 135.649 61.2544 135.604C61.2038 135.56 61.1417 135.529 61.075 135.517L48.3569 133.522C48.3039 133.516 48.2503 133.521 48.1995 133.537C48.1487 133.552 48.1018 133.578 48.0616 133.612C48.0239 133.647 47.9944 133.69 47.9751 133.737C47.9558 133.784 47.9471 133.835 47.9496 133.887L48.9053 146.418C48.9097 146.484 48.9336 146.547 48.9742 146.6C49.0148 146.653 49.0702 146.693 49.1337 146.716L65.5927 152.7C65.6534 152.724 65.7197 152.73 65.7838 152.719C65.848 152.708 65.9075 152.679 65.9554 152.636C66.0052 152.587 66.0406 152.525 66.0579 152.457ZM60.7765 136.167L65.2501 151.856L49.6494 146.181L48.7496 134.284L60.7765 136.167Z" fill="#454545"/>
<path d="M55.3166 137.493L51.3945 141.013L15.4608 102.75L19.3828 99.2312L55.3166 137.493Z" fill="white"/>
<path d="M55.6719 137.552L55.6801 137.504C55.6838 137.459 55.6774 137.413 55.6612 137.37C55.645 137.327 55.6195 137.289 55.5863 137.256L19.6493 98.9922C19.6177 98.9586 19.5797 98.9313 19.5375 98.912C19.4953 98.8927 19.4496 98.8817 19.4032 98.8797C19.3104 98.8779 19.2205 98.9099 19.1509 98.9694L15.2269 102.5C15.1925 102.529 15.1645 102.565 15.1448 102.606C15.1251 102.646 15.1141 102.69 15.1124 102.735C15.1107 102.78 15.1183 102.825 15.1349 102.867C15.1515 102.909 15.1766 102.948 15.2087 102.98L51.1388 141.243C51.2014 141.311 51.2888 141.353 51.382 141.358C51.4752 141.364 51.5665 141.333 51.6361 141.273L55.56 137.743C55.6186 137.693 55.6581 137.626 55.6719 137.552ZM19.3681 99.7079L54.811 137.466L51.4142 140.519L15.9632 102.767L19.3681 99.7079Z" fill="#454545"/>
<path d="M15.465 102.744L13.3205 108.151L49.2506 146.414L51.4021 141.008L15.465 102.744Z" fill="#454545"/>
<path d="M51.7505 141.068C51.7591 141.015 51.7552 140.961 51.7392 140.91C51.7231 140.858 51.6954 140.811 51.658 140.772L15.728 102.509C15.6862 102.466 15.6344 102.434 15.5772 102.416C15.52 102.398 15.4592 102.395 15.4004 102.405C15.3415 102.416 15.2864 102.441 15.2401 102.478C15.1938 102.515 15.1578 102.563 15.1352 102.617L12.9907 108.024C12.966 108.084 12.9591 108.15 12.9709 108.214C12.9827 108.278 13.0127 108.337 13.0575 108.386L48.9945 146.65C49.0356 146.693 49.0869 146.724 49.1438 146.742C49.2006 146.761 49.261 146.764 49.3195 146.753C49.3779 146.742 49.4325 146.717 49.4781 146.68C49.5237 146.643 49.5589 146.595 49.5803 146.541L51.7318 141.135L51.7505 141.068ZM15.5906 103.389L50.994 141.085L49.1238 145.775L13.7226 108.108L15.5906 103.389Z" fill="#454545"/>
<path d="M25.0873 97.5939L19.3945 99.228L55.3245 137.491L61.0174 135.857L25.0873 97.5939Z" fill="#454545"/>
<path d="M61.367 135.946C61.3741 135.893 61.3695 135.839 61.3535 135.788C61.3376 135.737 61.3107 135.69 61.2745 135.65L25.3492 97.3593C25.3025 97.3132 25.2443 97.2799 25.1805 97.2627C25.1166 97.2455 25.0494 97.2452 24.9856 97.2616L19.2858 98.8944C19.2279 98.9097 19.1755 98.9401 19.1341 98.9824C19.0927 99.0246 19.0639 99.0771 19.0507 99.1344C19.0349 99.1901 19.034 99.2491 19.0482 99.3055C19.0623 99.362 19.091 99.414 19.1315 99.4567L55.0616 137.72C55.1107 137.764 55.1717 137.793 55.2371 137.805C55.3026 137.816 55.3699 137.809 55.431 137.783L61.1296 136.157C61.1865 136.14 61.2379 136.109 61.279 136.067C61.3201 136.025 61.3496 135.974 61.3647 135.918L61.367 135.946ZM25.01 97.9949L60.4135 135.691L55.4693 137.103L20.0345 99.381L25.01 97.9949Z" fill="#454545"/>
<path d="M63.3443 144.054L60.8645 144.117L57.3153 147.305L57.0251 149.239L65.7104 152.397L63.3443 144.054Z" fill="#03C7E8"/>
<path d="M66.0577 152.457C66.0646 152.408 66.0611 152.357 66.0475 152.308L63.6825 143.958C63.6602 143.885 63.6136 143.82 63.5499 143.775C63.4863 143.73 63.4092 143.706 63.3308 143.708L60.8499 143.779C60.7667 143.779 60.687 143.811 60.6267 143.866L57.0786 147.048C57.0218 147.104 56.9823 147.175 56.9644 147.252L56.6801 149.194C56.6674 149.271 56.6828 149.35 56.7237 149.418C56.7646 149.485 56.8284 149.536 56.9037 149.562L65.589 152.72C65.6497 152.744 65.716 152.751 65.7801 152.74C65.8443 152.728 65.9038 152.7 65.9517 152.657C66.0061 152.602 66.043 152.533 66.0577 152.457ZM63.0822 144.402L65.1872 151.845L57.4136 149.019L57.6438 147.475L61.0336 144.462L63.0822 144.402Z" fill="#454545"/>
<path d="M73.8776 59.2742L68.5595 58.375L64.808 62.2459L64.0142 56.9138L59.1738 54.5463L64.0001 52.1437L64.7589 46.8115L68.5384 50.6543L73.8425 49.727L71.3485 54.5112L73.8776 59.2742Z" fill="#D3CECB"/>
<path d="M31.6856 197.783L25.1642 196.68L24.9049 196.636L24.7218 196.825L20.1199 201.574L19.146 195.033L19.1073 194.773L18.8712 194.657L12.9346 191.753L18.8544 188.806L19.0896 188.689L19.1266 188.429L20.0574 181.888L24.6946 186.603L24.8786 186.79L25.1372 186.745L31.6422 185.607L28.5826 191.477L28.461 191.71L28.5844 191.942L31.6856 197.783Z" stroke="#D3CECB"/>
<path d="M245.799 173.629L238.276 172.357L232.97 177.832L231.847 170.29L225 166.941L231.827 163.542L232.9 156L238.246 161.436L245.749 160.124L242.221 166.891L245.799 173.629Z" fill="#D7D3D1"/>
<path d="M220.924 155.81L219.388 153.342L219.249 153.119L218.986 153.107L216.081 152.974L217.952 150.748L218.121 150.547L218.051 150.293L217.279 147.493L219.973 148.584L220.217 148.683L220.436 148.538L222.862 146.939L222.66 149.84L222.642 150.102L222.847 150.266L225.116 152.077L222.291 152.779L222.036 152.842L221.943 153.089L220.924 155.81Z" stroke="#D3CECB"/>
<path d="M46.3063 94.4625L41.8463 90.7153L41.665 90.5631L41.4369 90.6262L35.8235 92.1786L38.0027 86.777L38.0912 86.5576L37.9606 86.3603L34.7482 81.5065L40.5584 81.9101L40.7943 81.9264L40.9416 81.7415L44.5671 77.1896L45.9847 82.8389L46.0422 83.068L46.2635 83.1509L51.7106 85.1897L46.7684 88.2814L46.5677 88.407L46.5575 88.6435L46.3063 94.4625Z" stroke="#D3CECB" stroke-width="0.9"/>
</svg>
